<svg xmlns="http://www.w3.org/2000/svg" width="2000" height="1080" viewBox="0 0 1500 810"><g data-name="Layer 1" stroke-width="1" stroke-miterlimit="2.613" fill="none" stroke="#f44f4f"><path d="M39.094 266.241v65.743M72.006 299.092l-32.923-32.92-32.92 32.924 32.923 32.92zM39.094 331.823v65.743"/><path d="m72.006 364.674-32.923-32.92-32.92 32.924 32.923 32.92zM39.127 397.652v65.743M72.04 430.503l-32.924-32.92-32.92 32.924 32.924 32.92zM39.127 463.234v65.743"/><path d="m72.04 496.085-32.924-32.92-32.92 32.924 32.924 32.92zM39.011 3.806V69.55M71.924 36.657 39 3.737 6.08 36.662l32.923 32.92zM39.011 69.388v65.743"/><path d="M71.924 102.24 39 69.32 6.08 102.243l32.923 32.92zM38.947 135.3v65.743M71.86 168.152l-32.924-32.92-32.92 32.923 32.924 32.92zM38.947 200.883v65.742"/><path d="m71.86 233.734-32.924-32.92-32.92 32.923 32.924 32.92zM39.112 529.266v65.743M72.025 562.117l-32.923-32.92-32.92 32.924 32.923 32.92zM39.112 594.848v65.743"/><path d="m72.025 627.7-32.923-32.92-32.92 32.923 32.923 32.92zM39.139 660.923v65.742M72.051 693.774l-32.923-32.92-32.92 32.923 32.923 32.92zM39.139 726.505v65.742"/><path d="m72.051 759.356-32.923-32.92-32.92 32.924 32.923 32.92zM104.97 266.287v65.742M137.882 299.138l-32.923-32.92-32.92 32.923 32.924 32.92zM104.97 331.869v65.742"/><path d="M137.882 364.72 104.96 331.8l-32.92 32.923 32.924 32.92zM105.004 397.698v65.742M137.916 430.549l-32.923-32.92-32.92 32.923 32.923 32.92zM105.004 463.28v65.742"/><path d="m137.916 496.13-32.923-32.919-32.92 32.923 32.923 32.92zM104.888 3.852v65.742M137.8 36.703l-32.923-32.92-32.92 32.923 32.924 32.92zM104.888 69.434v65.742"/><path d="m137.8 102.285-32.923-32.92-32.92 32.923 32.924 32.92zM104.823 135.346v65.742M137.736 168.197l-32.923-32.92-32.92 32.923 32.923 32.92zM104.823 200.928v65.742"/><path d="m137.736 233.779-32.923-32.92-32.92 32.923 32.923 32.92zM104.989 529.312v65.742M137.901 562.163l-32.923-32.92-32.92 32.923 32.923 32.92zM104.989 594.894v65.742"/><path d="m137.901 627.745-32.923-32.92-32.92 32.923 32.923 32.92zM105.015 660.968v65.743M137.927 693.82l-32.923-32.92-32.92 32.923 32.924 32.92zM105.015 726.55v65.743"/><path d="m137.927 759.402-32.923-32.92-32.92 32.923 32.924 32.92zM170.77 266.313v65.742M203.682 299.164l-32.923-32.92-32.92 32.923 32.924 32.92zM170.77 331.895v65.742"/><path d="m203.682 364.746-32.923-32.92-32.92 32.923 32.924 32.92zM170.804 397.724v65.742M203.716 430.575l-32.923-32.92-32.92 32.923 32.923 32.92zM170.804 463.306v65.742"/><path d="m203.716 496.157-32.923-32.92-32.92 32.923 32.923 32.92zM170.688 3.878V69.62M203.6 36.729l-32.923-32.92-32.92 32.923 32.923 32.92zM170.688 69.46v65.742"/><path d="m203.6 102.31-32.923-32.919-32.92 32.923 32.923 32.92zM170.624 135.372v65.742M203.536 168.223l-32.923-32.92-32.92 32.923 32.923 32.92zM170.624 200.954v65.742"/><path d="m203.536 233.805-32.923-32.92-32.92 32.923 32.923 32.92zM170.789 529.338v65.742M203.701 562.189l-32.923-32.92-32.92 32.923 32.923 32.92zM170.789 594.92v65.742"/><path d="m203.701 627.77-32.923-32.919-32.92 32.923 32.923 32.92zM170.815 660.995v65.742M203.727 693.846l-32.923-32.92-32.92 32.923 32.924 32.92zM170.815 726.577v65.742"/><path d="m203.727 759.428-32.923-32.92-32.92 32.923 32.924 32.92zM236.646 266.358V332.1M269.559 299.209l-32.923-32.92-32.92 32.923 32.923 32.92zM236.646 331.94v65.742"/><path d="m269.559 364.791-32.923-32.92-32.92 32.924 32.923 32.92zM236.68 397.77v65.741M269.592 430.62 236.67 397.7l-32.92 32.923 32.924 32.92zM236.68 463.351v65.742"/><path d="m269.592 496.202-32.923-32.92-32.92 32.924 32.924 32.92zM236.564 3.923v65.742M269.476 36.774l-32.923-32.92-32.92 32.924 32.924 32.92zM236.564 69.505v65.742"/><path d="m269.476 102.356-32.923-32.92-32.92 32.924 32.924 32.92zM236.5 135.417v65.742M269.412 168.268l-32.923-32.92-32.92 32.924 32.924 32.92zM236.5 201v65.742"/><path d="m269.412 233.85-32.923-32.92-32.92 32.924 32.924 32.92zM236.665 529.383v65.742M269.577 562.234l-32.923-32.92-32.92 32.923 32.924 32.92zM236.665 594.965v65.742"/><path d="m269.577 627.816-32.923-32.92-32.92 32.924 32.924 32.92zM236.692 661.04v65.742M269.604 693.89l-32.923-32.919-32.92 32.923 32.923 32.92zM236.692 726.622v65.742"/><path d="m269.604 759.473-32.923-32.92-32.92 32.923 32.923 32.92zM302.572 266.284v65.743M335.485 299.135l-32.923-32.92-32.92 32.924 32.923 32.92zM302.572 331.866v65.743"/><path d="m335.485 364.717-32.923-32.92-32.92 32.924 32.923 32.92zM302.606 397.695v65.743M335.518 430.546l-32.923-32.92-32.92 32.924 32.923 32.92zM302.606 463.277v65.743"/><path d="m335.518 496.128-32.923-32.92-32.92 32.924 32.923 32.92zM302.49 3.85v65.742M335.402 36.7 302.48 3.78l-32.92 32.924 32.924 32.92zM302.49 69.432v65.742"/><path d="m335.402 102.283-32.923-32.92-32.92 32.923 32.924 32.92zM302.426 135.344v65.742M335.338 168.195l-32.923-32.92-32.92 32.923 32.923 32.92zM302.426 200.926v65.742"/><path d="m335.338 233.777-32.923-32.92-32.92 32.923 32.923 32.92zM302.591 529.31v65.742M335.503 562.16l-32.923-32.92-32.92 32.924 32.924 32.92zM302.591 594.891v65.743"/><path d="m335.503 627.743-32.923-32.92-32.92 32.923 32.924 32.92zM302.617 660.966v65.742M335.53 693.817l-32.923-32.92-32.92 32.924 32.923 32.92zM302.617 726.548v65.743"/><path d="m335.53 759.4-32.923-32.92-32.92 32.923 32.923 32.92zM368.449 266.33v65.742M401.36 299.18l-32.922-32.919-32.92 32.923 32.923 32.92zM368.449 331.912v65.742"/><path d="m401.36 364.763-32.922-32.92-32.92 32.923 32.923 32.92zM368.482 397.74v65.743M401.394 430.592l-32.923-32.92-32.92 32.923 32.924 32.92zM368.482 463.323v65.742"/><path d="m401.394 496.174-32.923-32.92-32.92 32.923 32.924 32.92zM368.366 3.895v65.742M401.279 36.746l-32.924-32.92-32.919 32.923 32.923 32.92zM368.366 69.477v65.742"/><path d="m401.279 102.328-32.923-32.92-32.92 32.923 32.923 32.92zM368.302 135.389v65.742M401.214 168.24l-32.923-32.92-32.92 32.923 32.924 32.92zM368.302 200.971v65.742"/><path d="m401.214 233.822-32.923-32.92-32.92 32.923 32.924 32.92zM368.467 529.355v65.742M401.38 562.206l-32.923-32.92-32.92 32.923 32.923 32.92zM368.468 594.937v65.742"/><path d="m401.38 627.788-32.923-32.92-32.92 32.923 32.923 32.92zM368.494 661.012v65.742M401.406 693.863l-32.923-32.92-32.92 32.923 32.923 32.92zM368.494 726.594v65.742"/><path d="m401.406 759.445-32.923-32.92-32.92 32.923 32.924 32.92zM434.249 266.356v65.742M467.16 299.207l-32.922-32.92-32.92 32.923 32.923 32.92zM434.249 331.938v65.742"/><path d="m467.16 364.789-32.922-32.92-32.92 32.923 32.923 32.92zM434.282 397.767v65.742M467.194 430.618l-32.923-32.92-32.92 32.923 32.924 32.92zM434.282 463.349v65.742"/><path d="m467.194 496.2-32.923-32.92-32.92 32.923 32.924 32.92zM434.166 3.92v65.743M467.079 36.772l-32.923-32.92-32.92 32.923 32.923 32.92zM434.166 69.503v65.742"/><path d="m467.079 102.354-32.923-32.92-32.92 32.923 32.923 32.92zM434.102 135.415v65.742M467.014 168.266l-32.923-32.92-32.92 32.923 32.924 32.92zM434.102 200.997v65.742"/><path d="m467.014 233.848-32.923-32.92-32.92 32.923 32.924 32.92zM434.267 529.38v65.743M467.18 562.232l-32.923-32.92-32.92 32.923 32.923 32.92zM434.267 594.963v65.742"/><path d="m467.18 627.814-32.923-32.92-32.92 32.923 32.923 32.92zM434.294 661.038v65.742M467.206 693.889l-32.923-32.92-32.92 32.923 32.923 32.92zM434.294 726.62v65.742"/><path d="m467.206 759.47-32.923-32.919-32.92 32.923 32.923 32.92zM500.125 266.401v65.742M533.037 299.252l-32.923-32.92-32.92 32.923 32.924 32.92zM500.125 331.983v65.742"/><path d="m533.037 364.834-32.923-32.92-32.92 32.924 32.924 32.92zM500.159 397.812v65.742M533.07 430.663l-32.922-32.92-32.92 32.924 32.923 32.92zM500.159 463.394v65.743"/><path d="m533.07 496.245-32.922-32.92-32.92 32.924 32.923 32.92zM500.043 3.966v65.742M532.955 36.817l-32.923-32.92-32.92 32.924 32.923 32.92zM500.043 69.548v65.743"/><path d="m532.955 102.4-32.923-32.92-32.92 32.923 32.923 32.92zM499.978 135.46v65.743M532.89 168.311l-32.922-32.92-32.92 32.924 32.923 32.92zM499.978 201.042v65.743"/><path d="m532.89 233.893-32.922-32.92-32.92 32.924 32.923 32.92zM500.144 529.426v65.742M533.056 562.277l-32.923-32.92-32.92 32.924 32.923 32.92zM500.144 595.008v65.742"/><path d="m533.056 627.86-32.923-32.92-32.92 32.923 32.923 32.92zM500.17 661.083v65.742M533.082 693.934l-32.923-32.92-32.92 32.923 32.924 32.92zM500.17 726.665v65.742"/><path d="m533.082 759.516-32.923-32.92-32.92 32.923 32.924 32.92zM1356.333 266.726v65.743M1389.245 299.577l-32.923-32.92-32.92 32.924 32.924 32.92zM1356.333 332.308v65.743"/><path d="m1389.245 365.16-32.923-32.92-32.92 32.923 32.924 32.92zM1356.367 398.137v65.743M1389.279 430.988l-32.923-32.92-32.92 32.924 32.923 32.92zM1356.367 463.72v65.742"/><path d="m1389.279 496.57-32.923-32.92-32.92 32.924 32.923 32.92zM1356.251 4.291v65.743M1389.163 37.142l-32.923-32.92-32.92 32.924 32.924 32.92zM1356.251 69.873v65.743"/><path d="m1389.163 102.724-32.923-32.92-32.92 32.924 32.924 32.92zM1356.187 135.785v65.743M1389.099 168.636l-32.923-32.92-32.92 32.924 32.923 32.92zM1356.187 201.368v65.742"/><path d="m1389.099 234.219-32.923-32.92-32.92 32.923 32.923 32.92zM1356.352 529.751v65.743M1389.264 562.602l-32.923-32.92-32.92 32.924 32.923 32.92zM1356.352 595.333v65.743"/><path d="m1389.264 628.184-32.923-32.92-32.92 32.924 32.923 32.92zM1356.378 661.408v65.742M1389.29 694.26l-32.922-32.92-32.92 32.923 32.923 32.92zM1356.378 726.99v65.742"/><path d="m1389.29 759.841-32.922-32.92-32.92 32.924 32.923 32.92zM1422.21 266.772v65.742M1455.122 299.623l-32.923-32.92-32.92 32.923 32.923 32.92zM1422.21 332.354v65.742"/><path d="m1455.122 365.205-32.923-32.92-32.92 32.923 32.923 32.92zM1422.243 398.183v65.742M1455.155 431.034l-32.923-32.92-32.92 32.923 32.924 32.92zM1422.243 463.765v65.742"/><path d="m1455.155 496.616-32.923-32.92-32.92 32.923 32.924 32.92zM1422.127 4.337v65.742M1455.04 37.188l-32.924-32.92-32.92 32.923 32.924 32.92zM1422.127 69.919v65.742"/><path d="m1455.04 102.77-32.923-32.92-32.92 32.923 32.923 32.92zM1422.063 135.83v65.743M1454.975 168.682l-32.923-32.92-32.92 32.923 32.924 32.92zM1422.063 201.413v65.742"/><path d="m1454.975 234.264-32.923-32.92-32.92 32.923 32.924 32.92zM1422.228 529.797v65.742M1455.14 562.648l-32.923-32.92-32.92 32.923 32.924 32.92zM1422.228 595.379v65.742"/><path d="m1455.14 628.23-32.923-32.92-32.92 32.923 32.924 32.92zM1422.255 661.453v65.743M1455.167 694.304l-32.923-32.92-32.92 32.924 32.923 32.92zM1422.255 727.036v65.742"/><path d="m1455.167 759.887-32.923-32.92-32.92 32.923 32.924 32.92zM566.029 266.368v65.742M598.94 299.219l-32.922-32.92-32.92 32.923 32.923 32.92zM566.029 331.95v65.742"/><path d="m598.94 364.801-32.922-32.92-32.92 32.923 32.923 32.92zM566.062 397.779v65.742M598.974 430.63l-32.923-32.92-32.92 32.923 32.924 32.92zM566.062 463.361v65.742"/><path d="m598.974 496.212-32.923-32.92-32.92 32.924 32.924 32.92zM565.946 3.933v65.742M598.859 36.784l-32.923-32.92-32.92 32.924 32.923 32.92zM565.946 69.515v65.742"/><path d="m598.859 102.366-32.923-32.92-32.92 32.924 32.923 32.92zM565.882 135.427v65.742M598.794 168.278l-32.923-32.92-32.92 32.924 32.924 32.92zM565.882 201.01v65.741"/><path d="m598.794 233.86-32.923-32.92-32.92 32.924 32.924 32.92zM566.047 529.393v65.742M598.96 562.244l-32.923-32.92-32.92 32.923 32.923 32.92zM566.047 594.975v65.742"/><path d="m598.96 627.826-32.923-32.92-32.92 32.924 32.923 32.92zM566.074 661.05v65.742M598.986 693.9l-32.923-32.919-32.92 32.923 32.923 32.92zM566.074 726.632v65.742"/><path d="m598.986 759.483-32.923-32.92-32.92 32.923 32.923 32.92zM631.905 266.413v65.743M664.817 299.264l-32.923-32.92-32.92 32.924 32.923 32.92zM631.905 331.995v65.743"/><path d="m664.817 364.846-32.923-32.92-32.92 32.924 32.923 32.92zM631.938 397.824v65.743M664.85 430.675l-32.922-32.92-32.92 32.924 32.923 32.92zM631.938 463.406v65.743"/><path d="m664.85 496.257-32.922-32.92-32.92 32.924 32.923 32.92zM631.823 3.978v65.743M664.735 36.83 631.812 3.91l-32.92 32.923 32.923 32.92zM631.823 69.56v65.743"/><path d="m664.735 102.412-32.923-32.92-32.92 32.923 32.923 32.92zM631.758 135.472v65.743M664.67 168.323l-32.922-32.92-32.92 32.924 32.923 32.92zM631.758 201.055v65.742"/><path d="m664.67 233.906-32.922-32.92-32.92 32.923 32.923 32.92zM631.924 529.438v65.743M664.836 562.29l-32.923-32.92-32.92 32.923 32.923 32.92zM631.924 595.02v65.743"/><path d="m664.836 627.871-32.923-32.92-32.92 32.924 32.923 32.92zM631.95 661.095v65.742M664.862 693.946l-32.923-32.92-32.92 32.924 32.924 32.92zM631.95 726.677v65.742"/><path d="m664.862 759.528-32.923-32.92-32.92 32.924 32.924 32.92zM697.705 266.44v65.742M730.617 299.29l-32.923-32.92-32.92 32.924 32.924 32.92zM697.705 332.022v65.742"/><path d="m730.617 364.873-32.923-32.92-32.92 32.923 32.924 32.92zM697.738 397.85v65.743M730.65 430.701l-32.922-32.92-32.92 32.924 32.923 32.92zM697.738 463.433v65.742"/><path d="m730.65 496.284-32.922-32.92-32.92 32.923 32.923 32.92zM697.623 4.005v65.742M730.535 36.856l-32.923-32.92-32.92 32.923 32.923 32.92zM697.623 69.587v65.742"/><path d="m730.535 102.438-32.923-32.92-32.92 32.923 32.923 32.92zM697.558 135.499v65.742M730.47 168.35l-32.922-32.92-32.92 32.923 32.923 32.92zM697.558 201.08v65.743"/><path d="m730.47 233.932-32.922-32.92-32.92 32.923 32.923 32.92zM697.724 529.465v65.742M730.636 562.315l-32.923-32.92-32.92 32.924 32.923 32.92zM697.724 595.047v65.742"/><path d="m730.636 627.898-32.923-32.92-32.92 32.923 32.923 32.92zM697.75 661.121v65.743M730.662 693.972l-32.923-32.92-32.92 32.924 32.924 32.92zM697.75 726.703v65.743"/><path d="m730.662 759.554-32.923-32.92-32.92 32.924 32.924 32.92zM763.581 266.485v65.742M796.494 299.336l-32.923-32.92-32.92 32.923 32.923 32.92zM763.581 332.067v65.742"/><path d="m796.494 364.918-32.923-32.92-32.92 32.923 32.923 32.92zM763.615 397.896v65.742M796.527 430.747l-32.923-32.92-32.92 32.923 32.923 32.92zM763.615 463.478v65.742"/><path d="m796.527 496.329-32.923-32.92-32.92 32.923 32.923 32.92zM763.5 4.05v65.742M796.411 36.9 763.488 3.982l-32.92 32.923 32.924 32.92zM763.5 69.632v65.742"/><path d="m796.411 102.483-32.923-32.92-32.92 32.923 32.924 32.92zM763.435 135.544v65.742M796.347 168.395l-32.923-32.92-32.92 32.923 32.923 32.92zM763.435 201.126v65.742"/><path d="m796.347 233.977-32.923-32.92-32.92 32.923 32.923 32.92zM763.6 529.51v65.742M796.512 562.36l-32.923-32.919-32.92 32.923 32.924 32.92zM763.6 595.092v65.742"/><path d="m796.512 627.943-32.923-32.92-32.92 32.923 32.924 32.92zM763.627 661.167v65.742M796.539 694.018l-32.923-32.92-32.92 32.923 32.923 32.92zM763.627 726.749v65.742"/><path d="m796.539 759.6-32.923-32.92-32.92 32.923 32.923 32.92zM829.507 266.411v65.742M862.42 299.262l-32.924-32.92-32.92 32.923 32.924 32.92zM829.507 331.993v65.742"/><path d="m862.42 364.844-32.924-32.92-32.92 32.924 32.924 32.92zM829.54 397.822v65.742M862.453 430.673l-32.923-32.92-32.92 32.923 32.923 32.92zM829.54 463.404v65.742"/><path d="m862.453 496.255-32.923-32.92-32.92 32.924 32.923 32.92zM829.425 3.976v65.742M862.337 36.827l-32.923-32.92-32.92 32.924 32.924 32.92zM829.425 69.558v65.743"/><path d="m862.337 102.41-32.923-32.92-32.92 32.923 32.924 32.92zM829.36 135.47v65.742M862.273 168.321l-32.923-32.92-32.92 32.924 32.923 32.92zM829.36 201.052v65.743"/><path d="m862.273 233.903-32.923-32.92-32.92 32.924 32.923 32.92zM829.526 529.436v65.742M862.438 562.287l-32.923-32.92-32.92 32.924 32.923 32.92zM829.526 595.018v65.742"/><path d="m862.438 627.87-32.923-32.92-32.92 32.923 32.923 32.92zM829.552 661.093v65.742M862.465 693.944l-32.923-32.92-32.92 32.923 32.923 32.92zM829.552 726.675v65.742"/><path d="m862.465 759.526-32.923-32.92-32.92 32.923 32.923 32.92zM895.384 266.456V332.2M928.296 299.307l-32.923-32.92-32.92 32.924 32.923 32.92zM895.384 332.038v65.743"/><path d="m928.296 364.89-32.923-32.92-32.92 32.923 32.923 32.92zM895.417 397.868v65.742M928.33 430.719l-32.924-32.92-32.92 32.923 32.924 32.92zM895.417 463.45v65.742"/><path d="m928.33 496.3-32.924-32.92-32.92 32.924 32.924 32.92zM895.301 4.021v65.743M928.213 36.872 895.29 3.952l-32.92 32.924 32.924 32.92zM895.301 69.604v65.742"/><path d="m928.213 102.455-32.923-32.92-32.92 32.923 32.924 32.92zM895.237 135.516v65.742M928.15 168.367l-32.924-32.92-32.92 32.923 32.924 32.92zM895.237 201.098v65.742"/><path d="m928.15 233.949-32.924-32.92-32.92 32.923 32.924 32.92zM895.402 529.481v65.743M928.314 562.332l-32.923-32.92-32.92 32.924 32.924 32.92zM895.403 595.064v65.742"/><path d="m928.314 627.915-32.923-32.92-32.92 32.923 32.924 32.92zM895.429 661.138v65.742M928.34 693.99l-32.922-32.92-32.92 32.923 32.923 32.92zM895.429 726.72v65.743"/><path d="m928.34 759.571-32.922-32.92-32.92 32.924 32.923 32.92zM961.184 266.482v65.743M994.096 299.334l-32.923-32.92-32.92 32.923 32.923 32.92zM961.184 332.065v65.742"/><path d="m994.096 364.916-32.923-32.92-32.92 32.923 32.923 32.92zM961.217 397.894v65.742M994.13 430.745l-32.924-32.92-32.92 32.923 32.924 32.92zM961.217 463.476v65.742"/><path d="m994.13 496.327-32.924-32.92-32.92 32.923 32.924 32.92zM961.101 4.048V69.79M994.014 36.899 961.09 3.979l-32.92 32.923 32.923 32.92zM961.101 69.63v65.742"/><path d="M994.014 102.48 961.09 69.562l-32.92 32.923 32.923 32.92zM961.037 135.542v65.742M993.95 168.393l-32.924-32.92-32.92 32.923 32.924 32.92zM961.037 201.124v65.742"/><path d="m993.95 233.975-32.924-32.92-32.92 32.923 32.924 32.92zM961.202 529.508v65.742M994.115 562.359l-32.923-32.92-32.92 32.923 32.923 32.92zM961.202 595.09v65.742"/><path d="m994.115 627.94-32.923-32.919-32.92 32.923 32.923 32.92zM961.229 661.164v65.743M994.14 694.015l-32.922-32.92-32.92 32.924 32.923 32.92zM961.229 726.746v65.743"/><path d="m994.14 759.597-32.922-32.92-32.92 32.924 32.923 32.92zM1027.06 266.528v65.742M1059.972 299.379l-32.923-32.92-32.92 32.923 32.923 32.92zM1027.06 332.11v65.742"/><path d="m1059.972 364.96-32.923-32.919-32.92 32.923 32.923 32.92zM1027.093 397.939v65.742M1060.005 430.79l-32.922-32.92-32.92 32.923 32.923 32.92zM1027.093 463.521v65.742"/><path d="m1060.005 496.372-32.922-32.92-32.92 32.923 32.923 32.92zM1026.978 4.093v65.742M1059.89 36.944l-32.923-32.92-32.92 32.923 32.923 32.92zM1026.978 69.675v65.742"/><path d="m1059.89 102.526-32.923-32.92-32.92 32.923 32.923 32.92zM1026.913 135.587v65.742M1059.825 168.438l-32.922-32.92-32.92 32.923 32.923 32.92zM1026.913 201.17v65.741"/><path d="m1059.825 234.02-32.922-32.92-32.92 32.924 32.923 32.92zM1027.079 529.553v65.742M1059.99 562.404l-32.922-32.92-32.92 32.923 32.923 32.92zM1027.079 595.135v65.742"/><path d="m1059.99 627.986-32.922-32.92-32.92 32.923 32.923 32.92zM1027.105 661.21v65.742M1060.017 694.06l-32.923-32.919-32.92 32.923 32.924 32.92zM1027.105 726.792v65.742"/><path d="m1060.017 759.643-32.923-32.92-32.92 32.923 32.924 32.92zM1092.875 266.504v65.742M1125.787 299.354l-32.923-32.92-32.92 32.924 32.923 32.92zM1092.875 332.086v65.742"/><path d="m1125.787 364.937-32.923-32.92-32.92 32.923 32.923 32.92zM1092.908 397.914v65.743M1125.82 430.765l-32.922-32.92-32.92 32.924 32.923 32.92zM1092.908 463.497v65.742"/><path d="m1125.82 496.348-32.922-32.92-32.92 32.923 32.923 32.92zM1092.793 4.069V69.81M1125.705 36.92 1092.782 4l-32.92 32.923 32.923 32.92zM1092.793 69.65v65.743"/><path d="m1125.705 102.502-32.923-32.92-32.92 32.923 32.923 32.92zM1092.728 135.563v65.742M1125.64 168.414l-32.923-32.92-32.92 32.923 32.924 32.92zM1092.728 201.145v65.742"/><path d="m1125.64 233.996-32.923-32.92-32.92 32.923 32.924 32.92zM1092.893 529.529v65.742M1125.806 562.38l-32.923-32.92-32.92 32.923 32.923 32.92zM1092.893 595.11v65.743"/><path d="m1125.806 627.962-32.923-32.92-32.92 32.923 32.923 32.92zM1092.92 661.185v65.743M1125.832 694.036l-32.923-32.92-32.92 32.924 32.923 32.92zM1092.92 726.767v65.743"/><path d="m1125.832 759.618-32.923-32.92-32.92 32.924 32.923 32.92zM1158.751 266.549v65.742M1191.663 299.4l-32.923-32.92-32.92 32.923 32.924 32.92zM1158.751 332.13v65.743"/><path d="m1191.663 364.982-32.923-32.92-32.92 32.923 32.924 32.92zM1158.784 397.96v65.742M1191.697 430.81l-32.923-32.919-32.92 32.923 32.923 32.92zM1158.784 463.542v65.742"/><path d="m1191.697 496.393-32.923-32.92-32.92 32.923 32.923 32.92zM1158.669 4.114v65.742M1191.581 36.965l-32.923-32.92-32.92 32.923 32.923 32.92zM1158.669 69.696v65.742"/><path d="m1191.581 102.547-32.923-32.92-32.92 32.923 32.923 32.92zM1158.604 135.608v65.742M1191.517 168.459l-32.923-32.92-32.92 32.923 32.923 32.92zM1158.604 201.19v65.742"/><path d="m1191.517 234.041-32.923-32.92-32.92 32.923 32.923 32.92zM1158.77 529.574v65.742M1191.682 562.425l-32.923-32.92-32.92 32.923 32.923 32.92zM1158.77 595.156v65.742"/><path d="m1191.682 628.007-32.923-32.92-32.92 32.923 32.923 32.92zM1158.796 661.23v65.743M1191.708 694.082l-32.923-32.92-32.92 32.923 32.924 32.92zM1158.796 726.813v65.742"/><path d="m1191.708 759.664-32.923-32.92-32.92 32.923 32.924 32.92zM1224.551 266.575v65.742M1257.463 299.426l-32.923-32.92-32.92 32.923 32.924 32.92zM1224.551 332.157v65.742"/><path d="m1257.463 365.008-32.923-32.92-32.92 32.923 32.924 32.92zM1224.584 397.986v65.742M1257.497 430.837l-32.923-32.92-32.92 32.923 32.923 32.92zM1224.584 463.568v65.742"/><path d="m1257.497 496.419-32.923-32.92-32.92 32.923 32.923 32.92zM1224.469 4.14v65.742M1257.381 36.991l-32.923-32.92-32.92 32.923 32.924 32.92zM1224.469 69.722v65.742"/><path d="m1257.381 102.573-32.923-32.92-32.92 32.924 32.924 32.92zM1224.405 135.634v65.742M1257.317 168.485l-32.923-32.92-32.92 32.924 32.923 32.92zM1224.405 201.216v65.742"/><path d="m1257.317 234.067-32.923-32.92-32.92 32.924 32.923 32.92zM1224.57 529.6v65.742M1257.482 562.451l-32.923-32.92-32.92 32.923 32.923 32.92zM1224.57 595.182v65.742"/><path d="m1257.482 628.033-32.923-32.92-32.92 32.923 32.923 32.92zM1224.596 661.257v65.742M1257.508 694.108l-32.923-32.92-32.92 32.923 32.924 32.92zM1224.596 726.839v65.742"/><path d="m1257.508 759.69-32.923-32.92-32.92 32.923 32.924 32.92zM1290.427 266.62v65.743M1323.34 299.471l-32.923-32.92-32.92 32.924 32.923 32.92zM1290.427 332.202v65.743"/><path d="m1323.34 365.053-32.923-32.92-32.92 32.924 32.923 32.92zM1290.46 398.031v65.743M1323.373 430.882l-32.923-32.92-32.92 32.924 32.923 32.92zM1290.46 463.613v65.743"/><path d="m1323.373 496.464-32.923-32.92-32.92 32.924 32.923 32.92zM1290.345 4.185v65.743M1323.257 37.036l-32.923-32.92-32.92 32.924 32.924 32.92zM1290.345 69.767v65.743"/><path d="m1323.257 102.618-32.923-32.92-32.92 32.924 32.924 32.92zM1290.28 135.68v65.742M1323.193 168.53l-32.923-32.92-32.92 32.924 32.923 32.92zM1290.28 201.261v65.743"/><path d="m1323.193 234.112-32.923-32.92-32.92 32.924 32.923 32.92zM1290.446 529.645v65.743M1323.358 562.496l-32.923-32.92-32.92 32.924 32.924 32.92zM1290.446 595.227v65.743"/><path d="m1323.358 628.078-32.923-32.92-32.92 32.924 32.924 32.92zM1290.473 661.302v65.742M1323.385 694.153l-32.923-32.92-32.92 32.924 32.923 32.92zM1290.473 726.884v65.742"/><path d="m1323.385 759.735-32.923-32.92-32.92 32.924 32.924 32.92z"/></g></svg>