<?xml version="1.0" encoding="UTF-8"?>
<!DOCTYPE svg PUBLIC "-//W3C//DTD SVG 1.1//EN" "http://www.w3.org/Graphics/SVG/1.1/DTD/svg11.dtd">
<!-- Creator: CorelDRAW (Evaluation Version) -->
<svg xmlns="http://www.w3.org/2000/svg" xml:space="preserve" width="11.25in" height="11.25in" version="1.1" style="shape-rendering:geometricPrecision; text-rendering:geometricPrecision; image-rendering:optimizeQuality; fill-rule:evenodd; clip-rule:evenodd"
viewBox="0 0 11250 11250"
 xmlns:xlink="http://www.w3.org/1999/xlink"
 xmlns:xodm="http://www.corel.com/coreldraw/odm/2003">
 <defs>
  <style type="text/css">
   <![CDATA[
    .str0 {stroke:black;stroke-width:10.41;stroke-miterlimit:2.61313}
    .fil0 {fill:#475569}
   ]]>
  </style>
 </defs>
 <g id="Layer_x0020_1">
  <metadata id="CorelCorpID_0Corel-Layer"/>
  <polygon class="fil0 str0" points="4019.63,4750.49 5643.36,6312.78 5709.35,6376.27 7302.29,4733.24 8192.36,5612.86 6546.87,7290.62 7380.11,8107.84 9775.59,5665.37 9775.71,5665.24 9839.71,5599.99 8114.72,3895.26 8926.02,3058.44 8095.86,2238.03 7284.55,3074.85 5637.62,1447.26 4817.25,2277.38 6472.12,3912.82 5680.72,4729.11 4024.38,3135.46 3995.81,3107.97 3987.28,3099.76 3178.08,3940.79 3178.56,3941.25 1600.59,5550.17 1600.48,5550.28 1600.25,5550.52 1536.48,5615.54 5738.56,9768.28 6558.94,8938.15 3183.83,5602.68 "/>
 </g>
</svg>
